ffmpeg started on 2025-05-12 at 17:44:20
Report written to "D:\Convert\FFMetrics\reports\psnr_report-6.txt"
Log level: 32
Command line:
ffmpeg -hide_banner -nostdin -i "G:\\\xc0\xed\xe8\xec\xe5\\\xce\xed\xe3\xee\xe8\xed\xe3\xe8\\!_35_\xcb\xe5\xf2\xee_2024\\DreamCast\\\xce\xef\xe5\xf0\xe0\xf6\xe8\xff - \xd1\xe5\xec\xe5\xe9\xea\xe0 \xa8\xe4\xe7\xe0\xea\xf3\xf0\xe0\\[DC] Yozakura-san Chi no Daisakusen - 20_Telegram_HEVC.mkv" -i "G:\\\xc0\xed\xe8\xec\xe5\\\xce\xed\xe3\xee\xe8\xed\xe3\xe8\\!_35_\xcb\xe5\xf2\xee_2024\\DreamCast\\\xce\xef\xe5\xf0\xe0\xf6\xe8\xff - \xd1\xe5\xec\xe5\xe9\xea\xe0 \xa8\xe4\xe7\xe0\xea\xf3\xf0\xe0\\[DC] Yozakura-san Chi no Daisakusen - 20_Telegram.mp4" -lavfi "[0:v]settb=AVTB,setpts=PTS-STARTPTS,format=pix_fmts=yuv420p10,fps=24000/1001,scale=1920:1080:flags=bicubic[main];[1:v]settb=AVTB,setpts=PTS-STARTPTS,format=pix_fmts=yuv420p,fps=24000/1001,scale=1920:1080:flags=bicubic[ref];[main][ref]psnr=eof_action=endall:stats_file='D\\:/Convert/FFMetrics/logs/psnr_logfile-6.txt'" -f null -
Input #0, matroska,webm, from 'G:\Аниме\Онгоинги\!_35_Лето_2024\DreamCast\Операция - Семейка Ёдзакура\[DC] Yozakura-san Chi no Daisakusen - 20_Telegram_HEVC.mkv':
  Metadata:
    COMPATIBLE_BRANDS: isomiso2avc1mp41
    MAJOR_BRAND     : isom
    MINOR_VERSION   : 512
    ENCODER         : Lavf61.7.100
  Duration: 00:24:24.71, start: -0.021000, bitrate: 1694 kb/s
  Stream #0:0: Video: hevc (Main 10), yuv420p10le(tv, bt709, progressive), 1920x1080 [SAR 1:1 DAR 16:9], 23.98 fps, 23.98 tbr, 1k tbn (default)
      Metadata:
        HANDLER_NAME    : VideoHandler
        VENDOR_ID       : [0][0][0][0]
        ENCODER         : Lavc61.19.100 libx265
        BPS             : 1496971
        DURATION        : 00:24:24.587708333
        NUMBER_OF_FRAMES: 35115
        NUMBER_OF_BYTES : 274055545
        _STATISTICS_WRITING_APP: mkvpropedit v66.0.0 ('Josie') 64-bit
        _STATISTICS_WRITING_DATE_UTC: 2025-05-08 16:40:08
        _STATISTICS_TAGS: BPS DURATION NUMBER_OF_FRAMES NUMBER_OF_BYTES
  Stream #0:1: Audio: aac (LC), 48000 Hz, stereo, fltp (default)
      Metadata:
        HANDLER_NAME    : SoundHandler
        VENDOR_ID       : [0][0][0][0]
        ENCODER         : Lavc61.19.100 aac
        BPS             : 193840
        DURATION        : 00:24:24.704000000
        NUMBER_OF_FRAMES: 68659
        NUMBER_OF_BYTES : 35489920
        _STATISTICS_WRITING_APP: mkvpropedit v66.0.0 ('Josie') 64-bit
        _STATISTICS_WRITING_DATE_UTC: 2025-05-08 16:40:08
        _STATISTICS_TAGS: BPS DURATION NUMBER_OF_FRAMES NUMBER_OF_BYTES
Input #1, mov,mp4,m4a,3gp,3g2,mj2, from 'G:\Аниме\Онгоинги\!_35_Лето_2024\DreamCast\Операция - Семейка Ёдзакура\[DC] Yozakura-san Chi no Daisakusen - 20_Telegram.mp4':
  Metadata:
    major_brand     : isom
    minor_version   : 512
    compatible_brands: isomiso2avc1mp41
    encoder         : Lavf60.16.100
  Duration: 00:24:24.65, start: 0.000000, bitrate: 3798 kb/s
  Stream #1:0[0x1](und): Video: h264 (High) (avc1 / 0x31637661), yuv420p(tv, bt709, progressive), 1920x1080 [SAR 1:1 DAR 16:9], 3651 kb/s, 23.98 fps, 23.98 tbr, 24k tbn (default)
      Metadata:
        handler_name    : VideoHandler
        vendor_id       : [0][0][0][0]
        encoder         : Lavc60.31.102 h264_qsv
  Stream #1:1[0x2](und): Audio: aac (HE-AACv2) (mp4a / 0x6134706D), 48000 Hz, stereo, fltp, 144 kb/s (default)
      Metadata:
        handler_name    : SoundHandler
        vendor_id       : [0][0][0][0]
Stream mapping:
  Stream #0:0 (hevc) -> settb:default
  Stream #1:0 (h264) -> settb:default
  psnr:default -> Stream #0:0 (wrapped_avframe)
  Stream #0:1 -> #0:1 (aac (native) -> pcm_s16le (native))
Output #0, null, to 'pipe:':
  Metadata:
    COMPATIBLE_BRANDS: isomiso2avc1mp41
    MAJOR_BRAND     : isom
    MINOR_VERSION   : 512
    encoder         : Lavf61.7.100
  Stream #0:0: Video: wrapped_avframe, yuv420p10le(tv, bt709, progressive), 1920x1080 [SAR 1:1 DAR 16:9], q=2-31, 200 kb/s, 23.98 fps, 23.98 tbn
      Metadata:
        encoder         : Lavc61.19.100 wrapped_avframe
  Stream #0:1: Audio: pcm_s16le, 48000 Hz, stereo, s16, 1536 kb/s (default)
      Metadata:
        HANDLER_NAME    : SoundHandler
        VENDOR_ID       : [0][0][0][0]
        _STATISTICS_TAGS: BPS DURATION NUMBER_OF_FRAMES NUMBER_OF_BYTES
        BPS             : 193840
        DURATION        : 00:24:24.704000000
        NUMBER_OF_FRAMES: 68659
        NUMBER_OF_BYTES : 35489920
        _STATISTICS_WRITING_APP: mkvpropedit v66.0.0 ('Josie') 64-bit
        _STATISTICS_WRITING_DATE_UTC: 2025-05-08 16:40:08
        encoder         : Lavc61.19.100 pcm_s16le
frame=  190 fps=0.0 q=-0.0 size=N/A time=00:00:07.92 bitrate=N/A speed=15.1x    frame=  318 fps=304 q=-0.0 size=N/A time=00:00:13.26 bitrate=N/A speed=12.7x    frame=  509 fps=328 q=-0.0 size=N/A time=00:00:21.22 bitrate=N/A speed=13.7x    frame=  701 fps=338 q=-0.0 size=N/A time=00:00:29.23 bitrate=N/A speed=14.1x    frame=  919 fps=356 q=-0.0 size=N/A time=00:00:38.32 bitrate=N/A speed=14.8x    frame= 1128 fps=363 q=-0.0 size=N/A time=00:00:47.04 bitrate=N/A speed=15.1x    frame= 1330 fps=368 q=-0.0 size=N/A time=00:00:55.47 bitrate=N/A speed=15.3x    frame= 1545 fps=373 q=-0.0 size=N/A time=00:01:04.43 bitrate=N/A speed=15.6x    frame= 1695 fps=365 q=-0.0 size=N/A time=00:01:10.69 bitrate=N/A speed=15.2x    frame= 1887 fps=365 q=-0.0 size=N/A time=00:01:18.70 bitrate=N/A speed=15.2x    frame= 2086 fps=368 q=-0.0 size=N/A time=00:01:27.00 bitrate=N/A speed=15.3x    frame= 2274 fps=367 q=-0.0 size=N/A time=00:01:34.84 bitrate=N/A speed=15.3x    frame= 2478 fps=369 q=-0.0 size=N/A time=00:01:43.35 bitrate=N/A speed=15.4x    frame= 2700 fps=373 q=-0.0 size=N/A time=00:01:52.61 bitrate=N/A speed=15.5x    frame= 2918 fps=376 q=-0.0 size=N/A time=00:02:01.70 bitrate=N/A speed=15.7x    frame= 3147 fps=380 q=-0.0 size=N/A time=00:02:11.25 bitrate=N/A speed=15.9x    frame= 3353 fps=382 q=-0.0 size=N/A time=00:02:19.84 bitrate=N/A speed=15.9x    frame= 3586 fps=385 q=-0.0 size=N/A time=00:02:29.56 bitrate=N/A speed=16.1x    frame= 3795 fps=387 q=-0.0 size=N/A time=00:02:38.28 bitrate=N/A speed=16.1x    frame= 4012 fps=388 q=-0.0 size=N/A time=00:02:47.33 bitrate=N/A speed=16.2x    frame= 4241 fps=391 q=-0.0 size=N/A time=00:02:56.88 bitrate=N/A speed=16.3x    frame= 4446 fps=391 q=-0.0 size=N/A time=00:03:05.43 bitrate=N/A speed=16.3x    frame= 4654 fps=392 q=-0.0 size=N/A time=00:03:14.11 bitrate=N/A speed=16.3x    frame= 4877 fps=394 q=-0.0 size=N/A time=00:03:23.41 bitrate=N/A speed=16.4x    frame= 5111 fps=396 q=-0.0 size=N/A time=00:03:33.17 bitrate=N/A speed=16.5x    frame= 5337 fps=397 q=-0.0 size=N/A time=00:03:42.59 bitrate=N/A speed=16.6x    frame= 5608 fps=402 q=-0.0 size=N/A time=00:03:53.90 bitrate=N/A speed=16.8x    frame= 5879 fps=407 q=-0.0 size=N/A time=00:04:05.20 bitrate=N/A speed=  17x    frame= 6170 fps=412 q=-0.0 size=N/A time=00:04:17.34 bitrate=N/A speed=17.2x    frame= 6446 fps=416 q=-0.0 size=N/A time=00:04:28.85 bitrate=N/A speed=17.4x    frame= 6715 fps=419 q=-0.0 size=N/A time=00:04:40.07 bitrate=N/A speed=17.5x    frame= 6954 fps=421 q=-0.0 size=N/A time=00:04:50.03 bitrate=N/A speed=17.6x    frame= 7243 fps=425 q=-0.0 size=N/A time=00:05:02.09 bitrate=N/A speed=17.7x    frame= 7532 fps=429 q=-0.0 size=N/A time=00:05:14.14 bitrate=N/A speed=17.9x    frame= 7815 fps=432 q=-0.0 size=N/A time=00:05:25.95 bitrate=N/A speed=  18x    frame= 8094 fps=435 q=-0.0 size=N/A time=00:05:37.58 bitrate=N/A speed=18.2x    frame= 8386 fps=439 q=-0.0 size=N/A time=00:05:49.76 bitrate=N/A speed=18.3x    frame= 8664 fps=441 q=-0.0 size=N/A time=00:06:01.36 bitrate=N/A speed=18.4x    frame= 8933 fps=443 q=-0.0 size=N/A time=00:06:12.58 bitrate=N/A speed=18.5x    frame= 9182 fps=444 q=-0.0 size=N/A time=00:06:22.96 bitrate=N/A speed=18.5x    frame= 9436 fps=445 q=-0.0 size=N/A time=00:06:33.55 bitrate=N/A speed=18.6x    frame= 9695 fps=447 q=-0.0 size=N/A time=00:06:44.36 bitrate=N/A speed=18.6x    frame= 9973 fps=449 q=-0.0 size=N/A time=00:06:55.95 bitrate=N/A speed=18.7x    frame=10249 fps=451 q=-0.0 size=N/A time=00:07:07.46 bitrate=N/A speed=18.8x    frame=10536 fps=453 q=-0.0 size=N/A time=00:07:19.43 bitrate=N/A speed=18.9x    frame=10801 fps=455 q=-0.0 size=N/A time=00:07:30.49 bitrate=N/A speed=  19x    frame=11065 fps=456 q=-0.0 size=N/A time=00:07:41.50 bitrate=N/A speed=  19x    frame=11354 fps=458 q=-0.0 size=N/A time=00:07:53.55 bitrate=N/A speed=19.1x    frame=11631 fps=460 q=-0.0 size=N/A time=00:08:05.10 bitrate=N/A speed=19.2x    frame=11913 fps=461 q=-0.0 size=N/A time=00:08:16.87 bitrate=N/A speed=19.2x    frame=12181 fps=463 q=-0.0 size=N/A time=00:08:28.04 bitrate=N/A speed=19.3x    frame=12436 fps=463 q=-0.0 size=N/A time=00:08:38.68 bitrate=N/A speed=19.3x    frame=12689 fps=464 q=-0.0 size=N/A time=00:08:49.23 bitrate=N/A speed=19.3x    frame=12967 fps=465 q=-0.0 size=N/A time=00:09:00.83 bitrate=N/A speed=19.4x    frame=13244 fps=466 q=-0.0 size=N/A time=00:09:12.38 bitrate=N/A speed=19.5x    frame=13494 fps=467 q=-0.0 size=N/A time=00:09:22.81 bitrate=N/A speed=19.5x    frame=13704 fps=466 q=-0.0 size=N/A time=00:09:31.57 bitrate=N/A speed=19.4x    frame=13942 fps=466 q=-0.0 size=N/A time=00:09:41.49 bitrate=N/A speed=19.4x    frame=14177 fps=465 q=-0.0 size=N/A time=00:09:51.29 bitrate=N/A speed=19.4x    frame=14436 fps=466 q=-0.0 size=N/A time=00:10:02.10 bitrate=N/A speed=19.4x    frame=14640 fps=465 q=-0.0 size=N/A time=00:10:10.61 bitrate=N/A speed=19.4x    frame=14892 fps=465 q=-0.0 size=N/A time=00:10:21.12 bitrate=N/A speed=19.4x    frame=15109 fps=464 q=-0.0 size=N/A time=00:10:30.17 bitrate=N/A speed=19.4x    frame=15324 fps=464 q=-0.0 size=N/A time=00:10:39.13 bitrate=N/A speed=19.3x    frame=15536 fps=463 q=-0.0 size=N/A time=00:10:47.98 bitrate=N/A speed=19.3x    frame=15720 fps=461 q=-0.0 size=N/A time=00:10:55.65 bitrate=N/A speed=19.2x    frame=15996 fps=462 q=-0.0 size=N/A time=00:11:07.16 bitrate=N/A speed=19.3x    frame=16238 fps=462 q=-0.0 size=N/A time=00:11:17.25 bitrate=N/A speed=19.3x    frame=16429 fps=461 q=-0.0 size=N/A time=00:11:25.22 bitrate=N/A speed=19.2x    frame=16685 fps=462 q=-0.0 size=N/A time=00:11:35.90 bitrate=N/A speed=19.3x    frame=16916 fps=461 q=-0.0 size=N/A time=00:11:45.53 bitrate=N/A speed=19.2x    frame=17148 fps=461 q=-0.0 size=N/A time=00:11:55.21 bitrate=N/A speed=19.2x    frame=17412 fps=462 q=-0.0 size=N/A time=00:12:06.22 bitrate=N/A speed=19.3x    frame=17676 fps=463 q=-0.0 size=N/A time=00:12:17.23 bitrate=N/A speed=19.3x    frame=17891 fps=462 q=-0.0 size=N/A time=00:12:26.20 bitrate=N/A speed=19.3x    frame=18098 fps=461 q=-0.0 size=N/A time=00:12:34.83 bitrate=N/A speed=19.2x    frame=18293 fps=460 q=-0.0 size=N/A time=00:12:42.97 bitrate=N/A speed=19.2x    frame=18564 fps=461 q=-0.0 size=N/A time=00:12:54.27 bitrate=N/A speed=19.2x    frame=18827 fps=462 q=-0.0 size=N/A time=00:13:05.24 bitrate=N/A speed=19.3x    frame=19039 fps=461 q=-0.0 size=N/A time=00:13:14.08 bitrate=N/A speed=19.2x    frame=19221 fps=460 q=-0.0 size=N/A time=00:13:21.67 bitrate=N/A speed=19.2x    frame=19403 fps=458 q=-0.0 size=N/A time=00:13:29.26 bitrate=N/A speed=19.1x    frame=19576 fps=457 q=-0.0 size=N/A time=00:13:36.48 bitrate=N/A speed=19.1x    frame=19772 fps=456 q=-0.0 size=N/A time=00:13:44.65 bitrate=N/A speed=  19x    frame=20017 fps=456 q=-0.0 size=N/A time=00:13:54.87 bitrate=N/A speed=  19x    frame=20303 fps=457 q=-0.0 size=N/A time=00:14:06.80 bitrate=N/A speed=19.1x    frame=20561 fps=458 q=-0.0 size=N/A time=00:14:17.56 bitrate=N/A speed=19.1x    frame=20818 fps=458 q=-0.0 size=N/A time=00:14:28.28 bitrate=N/A speed=19.1x    frame=21011 fps=457 q=-0.0 size=N/A time=00:14:36.33 bitrate=N/A speed=19.1x    frame=21220 fps=457 q=-0.0 size=N/A time=00:14:45.05 bitrate=N/A speed=  19x    frame=21437 fps=456 q=-0.0 size=N/A time=00:14:54.10 bitrate=N/A speed=  19x    frame=21679 fps=456 q=-0.0 size=N/A time=00:15:04.19 bitrate=N/A speed=  19x    frame=21931 fps=457 q=-0.0 size=N/A time=00:15:14.70 bitrate=N/A speed=19.1x    frame=22110 fps=456 q=-0.0 size=N/A time=00:15:22.17 bitrate=N/A speed=  19x    frame=22290 fps=455 q=-0.0 size=N/A time=00:15:29.67 bitrate=N/A speed=  19x    frame=22431 fps=453 q=-0.0 size=N/A time=00:15:35.55 bitrate=N/A speed=18.9x    frame=22593 fps=451 q=-0.0 size=N/A time=00:15:42.31 bitrate=N/A speed=18.8x    frame=22738 fps=449 q=-0.0 size=N/A time=00:15:48.36 bitrate=N/A speed=18.7x    frame=22911 fps=448 q=-0.0 size=N/A time=00:15:55.57 bitrate=N/A speed=18.7x    frame=23059 fps=447 q=-0.0 size=N/A time=00:16:01.75 bitrate=N/A speed=18.6x    frame=23214 fps=445 q=-0.0 size=N/A time=00:16:08.21 bitrate=N/A speed=18.6x    frame=23458 fps=446 q=-0.0 size=N/A time=00:16:18.39 bitrate=N/A speed=18.6x    frame=23666 fps=445 q=-0.0 size=N/A time=00:16:27.06 bitrate=N/A speed=18.6x    frame=23884 fps=445 q=-0.0 size=N/A time=00:16:36.16 bitrate=N/A speed=18.6x    frame=24100 fps=445 q=-0.0 size=N/A time=00:16:45.17 bitrate=N/A speed=18.5x    frame=24316 fps=444 q=-0.0 size=N/A time=00:16:54.17 bitrate=N/A speed=18.5x    frame=24518 fps=444 q=-0.0 size=N/A time=00:17:02.60 bitrate=N/A speed=18.5x    frame=24773 fps=444 q=-0.0 size=N/A time=00:17:13.24 bitrate=N/A speed=18.5x    frame=25022 fps=445 q=-0.0 size=N/A time=00:17:23.62 bitrate=N/A speed=18.6x    frame=25284 fps=445 q=-0.0 size=N/A time=00:17:34.55 bitrate=N/A speed=18.6x    frame=25532 fps=446 q=-0.0 size=N/A time=00:17:44.89 bitrate=N/A speed=18.6x    frame=25779 fps=446 q=-0.0 size=N/A time=00:17:55.19 bitrate=N/A speed=18.6x    frame=26032 fps=446 q=-0.0 size=N/A time=00:18:05.75 bitrate=N/A speed=18.6x    frame=26290 fps=447 q=-0.0 size=N/A time=00:18:16.51 bitrate=N/A speed=18.6x    frame=26497 fps=446 q=-0.0 size=N/A time=00:18:25.14 bitrate=N/A speed=18.6x    frame=26709 fps=446 q=-0.0 size=N/A time=00:18:33.98 bitrate=N/A speed=18.6x    frame=26969 fps=447 q=-0.0 size=N/A time=00:18:44.83 bitrate=N/A speed=18.6x    frame=27228 fps=447 q=-0.0 size=N/A time=00:18:55.63 bitrate=N/A speed=18.6x    frame=27481 fps=447 q=-0.0 size=N/A time=00:19:06.18 bitrate=N/A speed=18.7x    frame=27680 fps=447 q=-0.0 size=N/A time=00:19:14.48 bitrate=N/A speed=18.6x    frame=27902 fps=447 q=-0.0 size=N/A time=00:19:23.74 bitrate=N/A speed=18.6x    frame=28156 fps=447 q=-0.0 size=N/A time=00:19:34.38 bitrate=N/A speed=18.7x    frame=28418 fps=448 q=-0.0 size=N/A time=00:19:45.26 bitrate=N/A speed=18.7x    frame=28652 fps=448 q=-0.0 size=N/A time=00:19:55.02 bitrate=N/A speed=18.7x    frame=28852 fps=447 q=-0.0 size=N/A time=00:20:03.36 bitrate=N/A speed=18.7x    frame=29041 fps=447 q=-0.0 size=N/A time=00:20:11.25 bitrate=N/A speed=18.6x    frame=29239 fps=446 q=-0.0 size=N/A time=00:20:19.50 bitrate=N/A speed=18.6x    frame=29476 fps=446 q=-0.0 size=N/A time=00:20:29.39 bitrate=N/A speed=18.6x    frame=29740 fps=447 q=-0.0 size=N/A time=00:20:40.40 bitrate=N/A speed=18.6x    frame=29936 fps=446 q=-0.0 size=N/A time=00:20:48.58 bitrate=N/A speed=18.6x    frame=30099 fps=445 q=-0.0 size=N/A time=00:20:55.37 bitrate=N/A speed=18.6x    frame=30268 fps=444 q=-0.0 size=N/A time=00:21:02.42 bitrate=N/A speed=18.5x    frame=30486 fps=444 q=-0.0 size=N/A time=00:21:11.52 bitrate=N/A speed=18.5x    frame=30675 fps=443 q=-0.0 size=N/A time=00:21:19.40 bitrate=N/A speed=18.5x    frame=30868 fps=443 q=-0.0 size=N/A time=00:21:27.45 bitrate=N/A speed=18.5x    frame=31050 fps=442 q=-0.0 size=N/A time=00:21:35.04 bitrate=N/A speed=18.4x    frame=31277 fps=442 q=-0.0 size=N/A time=00:21:44.51 bitrate=N/A speed=18.5x    frame=31547 fps=443 q=-0.0 size=N/A time=00:21:55.77 bitrate=N/A speed=18.5x    frame=31822 fps=444 q=-0.0 size=N/A time=00:22:07.24 bitrate=N/A speed=18.5x    frame=32035 fps=443 q=-0.0 size=N/A time=00:22:16.12 bitrate=N/A speed=18.5x    frame=32308 fps=444 q=-0.0 size=N/A time=00:22:27.51 bitrate=N/A speed=18.5x    frame=32530 fps=444 q=-0.0 size=N/A time=00:22:36.77 bitrate=N/A speed=18.5x    frame=32730 fps=443 q=-0.0 size=N/A time=00:22:45.11 bitrate=N/A speed=18.5x    frame=32875 fps=442 q=-0.0 size=N/A time=00:22:51.16 bitrate=N/A speed=18.4x    frame=33016 fps=441 q=-0.0 size=N/A time=00:22:57.04 bitrate=N/A speed=18.4x    frame=33192 fps=440 q=-0.0 size=N/A time=00:23:04.38 bitrate=N/A speed=18.4x    frame=33394 fps=440 q=-0.0 size=N/A time=00:23:12.80 bitrate=N/A speed=18.4x    frame=33551 fps=439 q=-0.0 size=N/A time=00:23:19.35 bitrate=N/A speed=18.3x    frame=33727 fps=439 q=-0.0 size=N/A time=00:23:26.69 bitrate=N/A speed=18.3x    frame=33938 fps=438 q=-0.0 size=N/A time=00:23:35.49 bitrate=N/A speed=18.3x    frame=34140 fps=438 q=-0.0 size=N/A time=00:23:43.92 bitrate=N/A speed=18.3x    frame=34281 fps=437 q=-0.0 size=N/A time=00:23:49.80 bitrate=N/A speed=18.2x    frame=34427 fps=436 q=-0.0 size=N/A time=00:23:55.89 bitrate=N/A speed=18.2x    frame=34574 fps=435 q=-0.0 size=N/A time=00:24:02.02 bitrate=N/A speed=18.1x    frame=34738 fps=434 q=-0.0 size=N/A time=00:24:08.86 bitrate=N/A speed=18.1x    frame=34906 fps=434 q=-0.0 size=N/A time=00:24:15.87 bitrate=N/A speed=18.1x    [Parsed_psnr_10 @ 0000018c5289e980] PSNR y:48.209156 u:50.453251 v:50.285960 average:48.816985 min:39.979739 max:inf
[out#0/null @ 0000018c4543eec0] video:15088KiB audio:274636KiB subtitle:0KiB other streams:0KiB global headers:0KiB muxing overhead: unknown
frame=35115 fps=434 q=-0.0 Lsize=N/A time=00:24:24.58 bitrate=N/A speed=18.1x    
